<?xml version="1.0" standalone="no"?>
<!DOCTYPE svg PUBLIC "-//W3C//DTD SVG 20010904//EN"
 "http://www.w3.org/TR/2001/REC-SVG-20010904/DTD/svg10.dtd">
<svg version="1.0" xmlns="http://www.w3.org/2000/svg"
 width="260.000000pt" height="260.000000pt" viewBox="0 0 260.000000 260.000000"
 preserveAspectRatio="xMidYMid meet">
<metadata>
Created by potrace 1.11, written by Peter Selinger 2001-2013
</metadata>
<g transform="translate(0.000000,260.000000) scale(0.100000,-0.100000)"
fill="#000000" stroke="none">
<path d="M1300 2594 c-76 -13 -149 -35 -217 -65 -24 -11 -45 -19 -48 -19 -3 0
-34 -20 -70 -45 -176 -123 -297 -304 -341 -507 -14 -67 -22 -247 -11 -265 3
-5 8 -30 11 -57 4 -27 9 -53 12 -58 3 -4 7 -17 9 -28 6 -30 65 -150 96 -197
16 -23 29 -51 29 -63 0 -36 49 -120 96 -163 53 -49 119 -77 194 -81 81 -5 113
-15 99 -32 -6 -8 -15 -12 -19 -9 -5 3 -11 1 -15 -5 -3 -5 -21 -17 -40 -26 -49
-23 -150 -118 -190 -179 -76 -114 -105 -215 -105 -367 0 -60 4 -110 10 -113 6
-3 11 -1 11 4 5 39 82 200 103 213 6 4 8 8 4 8 -10 0 21 37 92 110 143 148
347 234 549 231 42 -1 85 -1 96 -1 45 0 283 -54 318 -72 10 -5 26 -11 35 -13
15 -3 61 -20 252 -92 105 -40 201 -73 255 -88 28 -7 58 -16 68 -20 16 -7 17
24 17 569 l0 577 -32 -18 c-54 -30 -173 -155 -208 -216 l-33 -58 -26 39 c-41
60 -68 92 -79 92 -16 0 -22 31 -13 70 11 51 12 239 0 285 -5 22 -11 49 -13 60
-21 106 -113 270 -205 363 -157 158 -345 238 -565 239 -55 1 -112 -1 -126 -3z"/>
<path d="M141 1088 c-155 -71 -187 -288 -60 -404 77 -70 224 -110 366 -100
133 10 238 59 335 159 49 49 124 187 134 242 2 17 7 35 9 42 2 7 -1 15 -7 19
-7 4 -8 3 -4 -4 4 -7 2 -12 -3 -12 -6 0 -11 -6 -11 -14 0 -18 -75 -81 -115
-96 -83 -32 -130 -29 -227 13 -16 7 -28 15 -28 19 0 5 -7 8 -15 8 -8 0 -15 4
-15 9 0 14 -121 107 -161 124 -51 21 -146 19 -198 -5z"/>
<path d="M1266 695 c-168 -43 -324 -184 -351 -322 -14 -70 1 -212 25 -233 3
-3 18 -22 33 -43 43 -57 100 -89 171 -94 87 -7 137 9 189 62 57 56 70 107 63
236 -6 113 13 181 65 236 57 58 100 75 186 71 l74 -3 -25 20 c-26 21 -132 66
-170 73 -68 11 -207 10 -260 -3z"/>
</g>
</svg>
